<svg xmlns="http://www.w3.org/2000/svg" viewBox="0 0 351.87 394.29"><defs><style>.cls-1{fill:#fff;}.cls-2{fill:#eae337;}.cls-3{fill:#918a8c;}.cls-4{fill:#7d7779;}.cls-5{fill:#0079b6;}</style></defs><g id="Layer_2" data-name="Layer 2"><g id="Layer_1-2" data-name="Layer 1"><path id="color_5" class="cls-1" d="M184.64,304.51a27,27,0,0,1-12.39,0,27.66,27.66,0,1,1,12.39,0Zm18.29,7H154c-10.08,0-18.25,2.81-18.25,14V365q6.61,1.82,13.46,3.05l1-22.61a1.51,1.51,0,0,1,1.69-1.43h0a1.5,1.5,0,0,1,1.33,1.5l-.11,23.18a152.49,152.49,0,0,0,50.77-.86l-.1-22.32a1.49,1.49,0,0,1,1.32-1.5,1.51,1.51,0,0,1,1.69,1.43l.93,21.62q6.87-1.45,13.51-3.53v-38C221.18,314.34,213,311.53,202.93,311.53Z"/><path id="color_4" class="cls-2" d="M150.79,27.65a27.66,27.66,0,1,1,27.66,27.66A27.65,27.65,0,0,1,150.79,27.65ZM148,145.91l2.18-50.38a1.52,1.52,0,0,1,1.69-1.44h0a1.52,1.52,0,0,1,1.33,1.51L153,139a34.61,34.61,0,0,1,50.95,0l-.2-43.35a1.51,1.51,0,0,1,3-.07l2.17,50.37a34.38,34.38,0,0,1,4.21,16.54,32.45,32.45,0,0,1-.19,3.44,5.66,5.66,0,0,0,2,.55c3.4.24,6.24-2.45,6.24-10V75.65c0-11.24-8.17-14-18.25-14H154c-10.08,0-18.25,2.8-18.25,14v80.46c0,7.28,2.24,10,5.29,10.31a5.83,5.83,0,0,0,3-.54c-.11-1.13-.19-2.28-.19-3.44A34.56,34.56,0,0,1,148,145.91Z"/><path id="color_3" class="cls-3" d="M58.63,74.32A27.66,27.66,0,1,1,86,102.21,27.65,27.65,0,0,1,58.63,74.32Zm-1.24,67.86a1.51,1.51,0,0,1,1.7-1.42h0a1.51,1.51,0,0,1,1.31,1.52l-.68,50.4a34.59,34.59,0,0,1,35.34-9.5L69.42,161.59a13.82,13.82,0,0,1,16.34-22.22l25.14,16,.06-12.68a1.51,1.51,0,0,1,3,0l.52,15,13.71,8.76.39-43.53c.1-11.23-8-14.11-18.13-14.2l-48.95-.43c-10.08-.09-18.28,2.64-18.38,13.87l-.72,80.46c-.06,7.28,2.15,10.07,5.2,10.36a5.88,5.88,0,0,0,3-.51,34.27,34.27,0,0,1,3.79-12.27Zm188-66.2a27.66,27.66,0,1,1,27.41,27.9A27.67,27.67,0,0,1,245.36,76Zm-1.24,67.86a1.51,1.51,0,0,1,1.7-1.41h0a1.5,1.5,0,0,1,1.31,1.51l-.16,11.8L271,141a13.82,13.82,0,0,1,15.94,22.51l-27,21.91a34.62,34.62,0,0,1,37.54,9.36l.22-50.41a1.51,1.51,0,0,1,3,0l2,58.06a34.14,34.14,0,0,1,3.58,12.35,5.56,5.56,0,0,0,2,.56c3.4.28,6.26-2.39,6.33-9.95l.72-80.77c.1-11.23-8.05-14.12-18.13-14.21L248.24,110c-10.08-.09-18.28,2.64-18.38,13.88l-.38,42.63,13.9-8.53Z"/><path id="color_2" class="cls-4" d="M272.53,244.85a27.74,27.74,0,1,1,6.19-.72A27.47,27.47,0,0,1,272.53,244.85Zm24.47,6.3H248.05c-10.08,0-18.26,2.81-18.26,14v80.47c0,7.28,2.24,10,5.3,10.31a5.82,5.82,0,0,0,6.31-5.39l2.83-65.51a1.52,1.52,0,0,1,1.69-1.43h0a1.51,1.51,0,0,1,1.33,1.5l-.2,67.59a153.2,153.2,0,0,0,50.84-43.65l-.09-23.94a1.51,1.51,0,0,1,3-.07l.81,18.77a153.15,153.15,0,0,0,13.63-24.58V265.19C315.26,254,307.08,251.15,297,251.15Zm-205-7a27.64,27.64,0,1,1,21.46-26.93A27.45,27.45,0,0,1,92,244.13Zm19.08,41a1.51,1.51,0,0,1,3-.08l2.82,65.25a6,6,0,0,0,5.37,5.65c3.41.25,6.25-2.44,6.25-10V265.19c0-11.23-8.18-14-18.26-14H61.31c-10.08,0-18.26,2.81-18.26,14v27a153.8,153.8,0,0,0,13.27,19.94l1.17-27.08a1.52,1.52,0,0,1,1.69-1.43h0a1.51,1.51,0,0,1,1.33,1.5l-.13,31.95A152.93,152.93,0,0,0,111.27,356Z"/><path id="color_1" class="cls-5" d="M150.79,162.44a27.66,27.66,0,1,1,27.66,27.66A27.65,27.65,0,0,1,150.79,162.44Zm-25.45,37a57.13,57.13,0,0,1,20.7,41.9l.84,21.88a34.66,34.66,0,0,1,63.14,0l.83-21.88a57.2,57.2,0,0,1,20.7-41.9l51.17-42.32a6.8,6.8,0,0,0-7.94-11l-76.55,47.91a37.31,37.31,0,0,1-39.57,0L82.12,146.15A6.81,6.81,0,0,0,73,147.92h0a6.8,6.8,0,0,0,1.17,9.24Zm198.19-76.77V159A158,158,0,0,1,335,218.35c0,87.72-71.37,159.09-159.09,159.09S16.85,306.07,16.85,218.35a158.09,158.09,0,0,1,17.53-72.54V114A174.92,174.92,0,0,0,0,218.35c0,97,78.92,175.94,175.93,175.94s175.94-78.93,175.94-175.94A174.84,174.84,0,0,0,323.53,122.71Z"/></g></g></svg>