<svg xmlns="http://www.w3.org/2000/svg" viewBox="0 0 122.88 122.88"><defs><style>.cls-1{fill:#fff;}</style></defs><g id="Layer_2" data-name="Layer 2"><g id="Layer_1-2" data-name="Layer 1"><path class="cls-1" d="M81.6,4.73C81.6,2.12,84.18,0,87.37,0s5.77,2.12,5.77,4.73V25.45c0,2.61-2.58,4.73-5.77,4.73s-5.77-2.12-5.77-4.73ZM62.6,61.3l6,13.91,15.07,1.35a1.2,1.2,0,0,1,1.1,1.29v0a1.16,1.16,0,0,1-.41.81h0L73,88.68l3.37,14.75a1.21,1.21,0,0,1-.89,1.45h0a1.25,1.25,0,0,1-.94-.17L61.47,97l-13,7.78a1.21,1.21,0,0,1-1.8-1.32h0L50,88.64l-11.4-10A1.22,1.22,0,0,1,38.48,77a1.27,1.27,0,0,1,.86-.4l15-1.34,6-13.93a1.21,1.21,0,0,1,1.59-.64h0a1.2,1.2,0,0,1,.65.64Zm-33-56.57C29.61,2.12,32.19,0,35.38,0s5.77,2.12,5.77,4.73V25.45c0,2.61-2.58,4.73-5.77,4.73s-5.77-2.12-5.77-4.73ZM6.4,45.32H116.47V21.47a3,3,0,0,0-.86-2.07,2.92,2.92,0,0,0-2.07-.86H103a3.2,3.2,0,0,1,0-6.4h10.55a9.36,9.36,0,0,1,9.33,9.33v92.08a9.36,9.36,0,0,1-9.33,9.33H9.33A9.36,9.36,0,0,1,0,113.54V21.47a9.36,9.36,0,0,1,9.33-9.33H20.6a3.2,3.2,0,1,1,0,6.4H9.33a3,3,0,0,0-2.07.86,2.92,2.92,0,0,0-.86,2.07Zm110.07,6.41H6.4v61.81a3,3,0,0,0,.86,2.07,2.92,2.92,0,0,0,2.07.86H113.54a3,3,0,0,0,2.07-.86,2.92,2.92,0,0,0,.86-2.07Zm-66-33.19a3.2,3.2,0,1,1,0-6.4H71.91a3.2,3.2,0,1,1,0,6.4H50.47Z"/></g></g></svg>